classDiagram

    class Library {
        +add_book(book: Book)
        +register_user(user: User)
        +create_loan(user: User, book: Book)
    }

    class Book {
        +title: str
        +author: str
        +available: bool
        +mark_as_unavailable()
        +mark_as_available()
    }

    class User {
        +name: str
        +email: str
    }

    class Loan {
        +start_date: str
        +end_date: str
        +close_loan()
    }

    %% Relations
    Library "1" --> "*" Book
    Library "1" --> "*" User
    Library "1" --> "*" Loan

    Loan "*" --> "1" Book
    Loan "*" --> "1" User
